<svg xmlns="http://www.w3.org/2000/svg" version="1.1" viewBox="-5.0 -10.0 110.0 135.0">
 <path d="m51.859 62.188h-35.375c-0.86328 0-1.5625-0.69922-1.5625-1.5625v-40.625c0-0.86328 0.69922-1.5625 1.5625-1.5625h45.312c0.86328 0 1.5625 0.69922 1.5625 1.5625v29.953c0 0.86328-0.69922 1.5625-1.5625 1.5625s-1.5625-0.69922-1.5625-1.5625v-28.391h-42.188v37.5h33.812c0.86328 0 1.5625 0.69922 1.5625 1.5625s-0.69922 1.5625-1.5625 1.5625z"/>
 <path d="m29.758 35.617c0 3.125-4.6875 3.125-4.6875 0s4.6875-3.125 4.6875 0"/>
 <path d="m45.383 35.617c0 3.125-4.6875 3.125-4.6875 0s4.6875-3.125 4.6875 0"/>
 <path d="m53.195 30.93c0 3.125-4.6875 3.125-4.6875 0s4.6875-3.125 4.6875 0"/>
 <path d="m37.57 29.367c0 3.125-4.6875 3.125-4.6875 0s4.6875-3.125 4.6875 0"/>
 <path d="m27.418 37.496c-0.44531 0-0.88672-0.1875-1.1953-0.55859-0.55469-0.66016-0.46875-1.6445 0.19141-2.2031l7.8125-6.5664c0.56641-0.47266 1.3828-0.48828 1.9648-0.039063l7.1953 5.5859 6.6484-4.1172c0.73438-0.45703 1.6992-0.22656 2.1523 0.50391 0.45312 0.73438 0.22656 1.6953-0.50391 2.1523l-7.5703 4.6875c-0.55469 0.34375-1.2656 0.30469-1.7812-0.09375l-7.0586-5.4766-6.8477 5.7539c-0.29297 0.24609-0.64844 0.36719-1.0039 0.36719z"/>
 <path d="m27.414 52.73c-0.86328 0-1.5625-0.69922-1.5625-1.5625v-9.3008c0-0.86328 0.69922-1.5625 1.5625-1.5625 0.86328 0 1.5625 0.69922 1.5625 1.5625v9.3008c0 0.86328-0.69922 1.5625-1.5625 1.5625z"/>
 <path d="m35.227 52.73c-0.86328 0-1.5625-0.69922-1.5625-1.5625v-12.426c0-0.86328 0.69922-1.5625 1.5625-1.5625 0.86328 0 1.5625 0.69922 1.5625 1.5625v12.426c0 0.86328-0.69922 1.5625-1.5625 1.5625z"/>
 <path d="m43.039 52.73c-0.86328 0-1.5625-0.69922-1.5625-1.5625v-6.1758c0-0.86328 0.69922-1.5625 1.5625-1.5625 0.86328 0 1.5625 0.69922 1.5625 1.5625v6.1758c0 0.86328-0.69922 1.5625-1.5625 1.5625z"/>
 <path d="m50.852 52.73c-0.86328 0-1.5625-0.69922-1.5625-1.5625v-10.863c0-0.86328 0.69922-1.5625 1.5625-1.5625 0.86328 0 1.5625 0.69922 1.5625 1.5625v10.863c0 0.86328-0.69922 1.5625-1.5625 1.5625z"/>
 <path d="m56.828 71.562h-40.344c-0.86328 0-1.5625-0.69922-1.5625-1.5625v-9.375c0-0.86328 0.69922-1.5625 1.5625-1.5625h35.375c0.86328 0 1.5625 0.69922 1.5625 1.5625s-0.69922 1.5625-1.5625 1.5625h-33.812v6.25h38.781c0.86328 0 1.5625 0.69922 1.5625 1.5625s-0.69922 1.5625-1.5625 1.5625z"/>
 <path d="m62.781 73.328c-6.8906 0-12.5-5.6094-12.5-12.5s5.6094-12.5 12.5-12.5 12.5 5.6094 12.5 12.5-5.6094 12.5-12.5 12.5zm0-21.875c-5.168 0-9.375 4.207-9.375 9.375s4.207 9.375 9.375 9.375 9.375-4.207 9.375-9.375-4.207-9.375-9.375-9.375z"/>
 <path d="m79.609 81.562c-0.054687 0-0.10547 0-0.16016-0.003906-1.4492-0.042969-2.7734-0.65625-3.7188-1.7227-0.95703-1.0781-1.707-2.3008-2.4336-3.4844-1.3477-2.1953-2.5117-4.0938-4.707-4.8672-0.50781-0.17969-0.88672-0.60156-1.0078-1.125-0.11719-0.52344 0.039063-1.0703 0.41797-1.4531l4.418-4.418c0.37891-0.37891 0.92969-0.53516 1.4531-0.41797 0.52344 0.11719 0.94922 0.5 1.125 1.0078 0.77344 2.1992 2.668 3.3633 4.8672 4.707 1.1836 0.72656 2.4023 1.4727 3.4844 2.4336 1.0664 0.94531 1.6797 2.2656 1.7227 3.7188 0.046876 1.4922-0.53516 2.957-1.5938 4.0156l-0.015624 0.015625c-1.0195 1.0195-2.418 1.5977-3.8555 1.5977zm-7.8867-11.949c1.9375 1.3477 3.1445 3.3203 4.2422 5.1094 0.68359 1.1172 1.3281 2.168 2.1055 3.043 0.36719 0.41406 0.89063 0.65234 1.4727 0.67188 0.60938 0.015625 1.2578-0.23047 1.7109-0.67969l0.015625-0.015624c0.45312-0.44922 0.69922-1.0742 0.67969-1.7109-0.015625-0.58203-0.25391-1.1055-0.67188-1.4727-0.875-0.77734-1.9297-1.4219-3.043-2.1055-1.7891-1.0977-3.7617-2.3086-5.1094-4.2422z"/>
<text x="0.0" y="117.5" font-size="5.0" font-weight="bold" font-family="Arbeit Regular, Helvetica, Arial-Unicode, Arial, Sans-serif" fill="#000000">Created by Ian Rahmadi Kurniawan</text><text x="0.0" y="122.5" font-size="5.0" font-weight="bold" font-family="Arbeit Regular, Helvetica, Arial-Unicode, Arial, Sans-serif" fill="#000000">from Noun Project</text></svg>