<svg xmlns:rdf="http://www.w3.org/1999/02/22-rdf-syntax-ns#" xmlns="http://www.w3.org/2000/svg" xmlns:cc="http://creativecommons.org/ns#" xmlns:dc="http://purl.org/dc/elements/1.1/" xml:space="preserve" viewBox="0 0 100 125" version="1.1" y="0px" x="0px"><path d="m50 2.5c-26.191 0-47.5 21.309-47.5 47.5s21.309 47.5 47.5 47.5 47.5-21.309 47.5-47.5-21.309-47.5-47.5-47.5zm0 9.9784c1.5245 0 2.7607 1.2366 2.7607 2.7607v34.761c0 1.5245-1.2362 2.7607-2.7607 2.7607s-2.7607-1.2362-2.7607-2.7607v-34.761c0-1.5243 1.2362-2.7607 2.7607-2.7607zm15.829 7.957c0.44482 0.01509 0.89218 0.13954 1.3027 0.38108 10.304 6.061 16.705 17.243 16.705 29.184 0.001 18.658-15.179 33.837-33.837 33.837s-33.837-15.179-33.837-33.837c0-11.941 6.4011-23.123 16.705-29.183 1.3143-0.7723 3.0051-0.33447 3.7776 0.97962 0.77272 1.3141 0.33448 3.0051-0.97962 3.7776-8.625 5.071-13.984 14.431-13.984 24.425 0 15.614 12.703 28.318 28.318 28.318s28.318-12.703 28.318-28.318c0-9.9937-5.3587-19.354-13.984-24.426-1.3143-0.77272-1.7523-2.4637-0.97962-3.7776 0.53124-0.90329 1.4963-1.3939 2.4749-1.3607z"/><text x="0" y="115" fill="#000000" font-size="5px" font-weight="bold" font-family="'Helvetica Neue', Helvetica, Arial-Unicode, Arial, Sans-serif">Created by ciciliakwo</text><text x="0" y="120" fill="#000000" font-size="5px" font-weight="bold" font-family="'Helvetica Neue', Helvetica, Arial-Unicode, Arial, Sans-serif">from the Noun Project</text></svg>