<svg xmlns="http://www.w3.org/2000/svg" viewBox="0 0 32 40" x="0px" y="0px"><path d="M23,7.75A2.75,2.75,0,1,0,20.25,5,2.75,2.75,0,0,0,23,7.75Zm0-4A1.25,1.25,0,1,1,21.75,5,1.25,1.25,0,0,1,23,3.75Z"/><path d="M16,8.75A2.75,2.75,0,1,0,13.25,6,2.75,2.75,0,0,0,16,8.75Zm0-4A1.25,1.25,0,1,1,14.75,6,1.25,1.25,0,0,1,16,4.75Z"/><path d="M9,7.75A2.75,2.75,0,1,0,6.25,5,2.75,2.75,0,0,0,9,7.75Zm0-4A1.25,1.25,0,1,1,7.75,5,1.25,1.25,0,0,1,9,3.75Z"/><path d="M25,10.25H7A1.76,1.76,0,0,0,5.25,12v2.23A2.78,2.78,0,0,0,6,16.07l6,6.67a1.22,1.22,0,0,1,.32.83V28A1.75,1.75,0,0,0,13,29.42a1.74,1.74,0,0,0,1.57.24l4-1.33a1.75,1.75,0,0,0,1.2-1.66v-3.1a1.22,1.22,0,0,1,.32-.83l6-6.67a2.78,2.78,0,0,0,.7-1.84V12A1.76,1.76,0,0,0,25,10.25ZM6.75,12A.25.25,0,0,1,7,11.75H25a.25.25,0,0,1,.25.25v2.25H6.75V12ZM19,21.74a2.73,2.73,0,0,0-.7,1.83v3.1a.25.25,0,0,1-.17.23l-4,1.34a.26.26,0,0,1-.23,0,.24.24,0,0,1-.1-.2V23.57a2.73,2.73,0,0,0-.7-1.83l-5.37-6H24.32Z"/><text x="0" y="47" fill="#000000" font-size="5px" font-weight="bold" font-family="'Helvetica Neue', Helvetica, Arial-Unicode, Arial, Sans-serif">Created by Arkinasi</text><text x="0" y="52" fill="#000000" font-size="5px" font-weight="bold" font-family="'Helvetica Neue', Helvetica, Arial-Unicode, Arial, Sans-serif">from the Noun Project</text></svg>