<svg xmlns="http://www.w3.org/2000/svg" version="1.1" viewBox="-5.0 -10.0 110.0 135.0">
 <path d="m42 13c-15.98 0-29 13.02-29 29s13.02 29 29 29c6.9102 0 13.258-2.4453 18.25-6.5l21.625 21.625c1.1719 1.1719 3.0781 1.1719 4.25 0s1.1719-3.0781 0-4.25l-21.625-21.625c4.0547-4.9883 6.5-11.34 6.5-18.25 0-15.98-13.02-29-29-29zm0 6c12.738 0 23 10.262 23 23s-10.262 23-23 23-23-10.262-23-23 10.262-23 23-23z"/>
<text x="0.0" y="117.5" font-size="5.0" font-weight="bold" font-family="Arbeit Regular, Helvetica, Arial-Unicode, Arial, Sans-serif" fill="#000000">Created by Aya Sofya</text><text x="0.0" y="122.5" font-size="5.0" font-weight="bold" font-family="Arbeit Regular, Helvetica, Arial-Unicode, Arial, Sans-serif" fill="#000000">from Noun Project</text></svg>